<mxfile modified="2021-01-28T22:07:09.014Z" host="app.diagrams.net" agent="5.0 (Windows NT 10.0; Win64; x64) AppleWebKit/537.36 (KHTML, like Gecko) Chrome/85.0.4183.121 Safari/537.36" etag="5g50BRLlEx_srd_MLiHt" version="14.2.7" type="github">
  <diagram id="Ht1M8jgEwFfnCIfOTk4-" name="Page-1">
    <mxGraphModel dx="1564" dy="892" grid="1" gridSize="10" guides="1" tooltips="1" connect="1" arrows="1" fold="1" page="1" pageScale="1" pageWidth="1654" pageHeight="1169" math="0" shadow="0">
      <root>
        <mxCell id="0" />
        <mxCell id="1" parent="0" />
        <mxCell id="k0RCSUfhI0zsTWzoeVMQ-13" value="" style="rounded=1;arcSize=10;dashed=0;fillColor=none;gradientColor=none;strokeWidth=2;fontSize=15;" vertex="1" parent="1">
          <mxGeometry x="235" y="75" width="935" height="935" as="geometry" />
        </mxCell>
        <mxCell id="k0RCSUfhI0zsTWzoeVMQ-42" value="Cache Layer" style="fillColor=#EFF0F3;strokeColor=none;dashed=0;verticalAlign=top;fontStyle=0;fontColor=#232F3D;" vertex="1" parent="1">
          <mxGeometry x="350" y="850" width="280" height="140" as="geometry" />
        </mxCell>
        <mxCell id="k0RCSUfhI0zsTWzoeVMQ-12" value="&lt;b style=&quot;font-size: 15px;&quot;&gt;&lt;font style=&quot;font-size: 15px;&quot;&gt;Canais&lt;/font&gt;&lt;/b&gt;" style="outlineConnect=0;gradientColor=none;html=1;whiteSpace=wrap;fontSize=15;fontStyle=0;strokeColor=#858B94;fillColor=none;verticalAlign=top;align=center;fontColor=#858B94;dashed=1;spacingTop=-1;" vertex="1" parent="1">
          <mxGeometry x="20" y="70" width="98.82" height="280" as="geometry" />
        </mxCell>
        <mxCell id="UEzPUAAOIrF-is8g5C7q-111" value="Amazon &lt;br&gt;Cognito" style="outlineConnect=0;fontColor=#232F3E;gradientColor=#F54749;gradientDirection=north;fillColor=#C7131F;strokeColor=#ffffff;dashed=0;verticalLabelPosition=bottom;verticalAlign=top;align=center;html=1;fontSize=12;fontStyle=0;aspect=fixed;shape=mxgraph.aws4.resourceIcon;resIcon=mxgraph.aws4.cognito;labelBackgroundColor=#ffffff;" parent="1" vertex="1">
          <mxGeometry x="310" y="111" width="77" height="78" as="geometry" />
        </mxCell>
        <mxCell id="UEzPUAAOIrF-is8g5C7q-114" value="Amazon API&lt;br&gt;Gateway&lt;br&gt;" style="outlineConnect=0;fontColor=#232F3E;gradientColor=#945DF2;gradientDirection=north;fillColor=#5A30B5;strokeColor=#ffffff;dashed=0;verticalLabelPosition=bottom;verticalAlign=top;align=center;html=1;fontSize=12;fontStyle=0;aspect=fixed;shape=mxgraph.aws4.resourceIcon;resIcon=mxgraph.aws4.api_gateway;labelBackgroundColor=#ffffff;" parent="1" vertex="1">
          <mxGeometry x="307" y="250" width="77" height="78" as="geometry" />
        </mxCell>
        <mxCell id="k0RCSUfhI0zsTWzoeVMQ-3" value="Legados" style="fillColor=none;strokeColor=#5A6C86;dashed=1;verticalAlign=top;fontStyle=1;fontColor=#5A6C86;fontSize=15;" vertex="1" parent="1">
          <mxGeometry x="1270" y="81.25" width="130" height="928.75" as="geometry" />
        </mxCell>
        <mxCell id="k0RCSUfhI0zsTWzoeVMQ-5" value="Main&lt;br&gt;frame" style="fontColor=#0066CC;verticalAlign=top;verticalLabelPosition=bottom;labelPosition=center;align=center;html=1;outlineConnect=0;fillColor=#CCCCCC;strokeColor=#6881B3;gradientColor=none;gradientDirection=north;strokeWidth=2;shape=mxgraph.networks.mainframe;" vertex="1" parent="1">
          <mxGeometry x="1295" y="607.25" width="80" height="100" as="geometry" />
        </mxCell>
        <mxCell id="k0RCSUfhI0zsTWzoeVMQ-7" value="" style="shape=image;html=1;verticalAlign=top;verticalLabelPosition=bottom;labelBackgroundColor=#ffffff;imageAspect=0;aspect=fixed;image=https://cdn4.iconfinder.com/data/icons/miu-social/60/whatsapp-social-media-128.png" vertex="1" parent="1">
          <mxGeometry x="25.07" y="98" width="42" height="42" as="geometry" />
        </mxCell>
        <mxCell id="k0RCSUfhI0zsTWzoeVMQ-8" value="" style="outlineConnect=0;fontColor=#232F3E;gradientColor=none;fillColor=#232F3E;strokeColor=none;dashed=0;verticalLabelPosition=bottom;verticalAlign=top;align=center;html=1;fontSize=12;fontStyle=0;aspect=fixed;pointerEvents=1;shape=mxgraph.aws4.email_2;" vertex="1" parent="1">
          <mxGeometry x="30.75" y="140" width="31.84" height="20" as="geometry" />
        </mxCell>
        <mxCell id="k0RCSUfhI0zsTWzoeVMQ-10" value="" style="whiteSpace=wrap;html=1;shape=mxgraph.basic.oval_callout" vertex="1" parent="1">
          <mxGeometry x="30" y="211.5" width="33.33" height="20" as="geometry" />
        </mxCell>
        <mxCell id="k0RCSUfhI0zsTWzoeVMQ-11" value="" style="shape=mxgraph.signs.tech.telephone_3;html=1;pointerEvents=1;fillColor=#000000;strokeColor=none;verticalLabelPosition=bottom;verticalAlign=top;align=center;" vertex="1" parent="1">
          <mxGeometry x="35.07999999999999" y="171.5" width="21.98" height="30" as="geometry" />
        </mxCell>
        <mxCell id="k0RCSUfhI0zsTWzoeVMQ-14" value="" style="dashed=0;html=1;shape=mxgraph.aws3.cloud;fillColor=#F58536;gradientColor=none;dashed=0;fontSize=15;" vertex="1" parent="1">
          <mxGeometry x="255" y="55" width="52" height="36" as="geometry" />
        </mxCell>
        <mxCell id="k0RCSUfhI0zsTWzoeVMQ-54" value="" style="edgeStyle=orthogonalEdgeStyle;rounded=0;orthogonalLoop=1;jettySize=auto;html=1;fontSize=15;exitX=0;exitY=0.25;exitDx=0;exitDy=0;exitPerimeter=0;entryX=1;entryY=0.25;entryDx=0;entryDy=0;entryPerimeter=0;" edge="1" parent="1" source="k0RCSUfhI0zsTWzoeVMQ-27" target="k0RCSUfhI0zsTWzoeVMQ-56">
          <mxGeometry relative="1" as="geometry">
            <mxPoint x="807" y="657.3333333333335" as="targetPoint" />
          </mxGeometry>
        </mxCell>
        <mxCell id="k0RCSUfhI0zsTWzoeVMQ-59" value="SQS&lt;br&gt;Event Trigger" style="edgeLabel;html=1;align=center;verticalAlign=bottom;resizable=0;points=[];fontSize=15;labelBackgroundColor=none;" vertex="1" connectable="0" parent="k0RCSUfhI0zsTWzoeVMQ-54">
          <mxGeometry x="-0.2113" y="1" relative="1" as="geometry">
            <mxPoint x="-12.33" y="-2.5" as="offset" />
          </mxGeometry>
        </mxCell>
        <mxCell id="k0RCSUfhI0zsTWzoeVMQ-27" value="" style="points=[[0,0,0],[0.25,0,0],[0.5,0,0],[0.75,0,0],[1,0,0],[0,1,0],[0.25,1,0],[0.5,1,0],[0.75,1,0],[1,1,0],[0,0.25,0],[0,0.5,0],[0,0.75,0],[1,0.25,0],[1,0.5,0],[1,0.75,0]];outlineConnect=0;fontColor=#232F3E;gradientColor=#F34482;gradientDirection=north;fillColor=#BC1356;strokeColor=#ffffff;dashed=0;verticalLabelPosition=bottom;verticalAlign=top;align=center;html=1;fontSize=12;fontStyle=0;aspect=fixed;shape=mxgraph.aws4.resourceIcon;resIcon=mxgraph.aws4.sqs;" vertex="1" parent="1">
          <mxGeometry x="954" y="618.25" width="78" height="78" as="geometry" />
        </mxCell>
        <mxCell id="k0RCSUfhI0zsTWzoeVMQ-41" value="Profile" style="aspect=fixed;html=1;points=[];align=center;image;fontSize=12;image=img/lib/mscae/Cache_Redis_Product.svg;labelBackgroundColor=none;" vertex="1" parent="1">
          <mxGeometry x="370" y="873" width="100" height="84" as="geometry" />
        </mxCell>
        <mxCell id="k0RCSUfhI0zsTWzoeVMQ-43" value="Customer Service" style="aspect=fixed;html=1;points=[];align=center;image;fontSize=12;image=img/lib/mscae/Cache_Redis_Product.svg;labelBackgroundColor=none;" vertex="1" parent="1">
          <mxGeometry x="510" y="873" width="100" height="84" as="geometry" />
        </mxCell>
        <mxCell id="k0RCSUfhI0zsTWzoeVMQ-44" value="Generic group" style="fillColor=#EFF0F3;strokeColor=none;dashed=0;verticalAlign=top;fontStyle=0;fontColor=#232F3D;" vertex="1" parent="1">
          <mxGeometry x="650" y="850" width="310" height="140" as="geometry" />
        </mxCell>
        <mxCell id="UEzPUAAOIrF-is8g5C7q-121" value="Amazon&lt;br&gt;CloudWatch&lt;br&gt;" style="outlineConnect=0;fontColor=#232F3E;gradientColor=#F34482;gradientDirection=north;fillColor=#BC1356;strokeColor=#ffffff;dashed=0;verticalLabelPosition=bottom;verticalAlign=top;align=center;html=1;fontSize=12;fontStyle=0;aspect=fixed;shape=mxgraph.aws4.resourceIcon;resIcon=mxgraph.aws4.cloudwatch;labelBackgroundColor=none;" parent="1" vertex="1">
          <mxGeometry x="680.0000000000002" y="873" width="77" height="78" as="geometry" />
        </mxCell>
        <mxCell id="k0RCSUfhI0zsTWzoeVMQ-45" value="" style="edgeStyle=orthogonalEdgeStyle;html=1;endArrow=none;elbow=vertical;startArrow=block;startFill=1;strokeColor=#545B64;rounded=0;fontSize=15;entryX=0;entryY=0.5;entryDx=0;entryDy=0;entryPerimeter=0;exitX=1;exitY=0.5;exitDx=0;exitDy=0;exitPerimeter=0;" edge="1" parent="1" source="k0RCSUfhI0zsTWzoeVMQ-27" target="k0RCSUfhI0zsTWzoeVMQ-5">
          <mxGeometry width="100" relative="1" as="geometry">
            <mxPoint x="850" y="657" as="sourcePoint" />
            <mxPoint x="1120" y="654.75" as="targetPoint" />
          </mxGeometry>
        </mxCell>
        <mxCell id="k0RCSUfhI0zsTWzoeVMQ-50" value="HTTP Request" style="edgeLabel;html=1;align=center;verticalAlign=bottom;resizable=0;points=[];fontSize=15;labelBackgroundColor=none;" vertex="1" connectable="0" parent="k0RCSUfhI0zsTWzoeVMQ-45">
          <mxGeometry x="-0.3127" y="1" relative="1" as="geometry">
            <mxPoint x="-12" y="2.75" as="offset" />
          </mxGeometry>
        </mxCell>
        <mxCell id="k0RCSUfhI0zsTWzoeVMQ-61" style="edgeStyle=orthogonalEdgeStyle;rounded=0;orthogonalLoop=1;jettySize=auto;html=1;entryX=0.447;entryY=-0.003;entryDx=0;entryDy=0;entryPerimeter=0;fontSize=15;" edge="1" parent="1" source="k0RCSUfhI0zsTWzoeVMQ-56" target="k0RCSUfhI0zsTWzoeVMQ-41">
          <mxGeometry relative="1" as="geometry" />
        </mxCell>
        <mxCell id="k0RCSUfhI0zsTWzoeVMQ-62" value="Update Profile" style="edgeLabel;html=1;align=center;verticalAlign=bottom;resizable=0;points=[];fontSize=15;labelBackgroundColor=none;" vertex="1" connectable="0" parent="k0RCSUfhI0zsTWzoeVMQ-61">
          <mxGeometry x="-0.2562" relative="1" as="geometry">
            <mxPoint y="-1" as="offset" />
          </mxGeometry>
        </mxCell>
        <mxCell id="k0RCSUfhI0zsTWzoeVMQ-56" value="" style="points=[[0,0,0],[0.25,0,0],[0.5,0,0],[0.75,0,0],[1,0,0],[0,1,0],[0.25,1,0],[0.5,1,0],[0.75,1,0],[1,1,0],[0,0.25,0],[0,0.5,0],[0,0.75,0],[1,0.25,0],[1,0.5,0],[1,0.75,0]];outlineConnect=0;fontColor=#232F3E;gradientColor=#F78E04;gradientDirection=north;fillColor=#D05C17;strokeColor=#ffffff;dashed=0;verticalLabelPosition=bottom;verticalAlign=top;align=center;html=1;fontSize=12;fontStyle=0;aspect=fixed;shape=mxgraph.aws4.resourceIcon;resIcon=mxgraph.aws4.lambda;" vertex="1" parent="1">
          <mxGeometry x="720" y="618.25" width="78" height="78" as="geometry" />
        </mxCell>
        <mxCell id="k0RCSUfhI0zsTWzoeVMQ-58" value="" style="edgeStyle=orthogonalEdgeStyle;html=1;endArrow=block;elbow=vertical;startArrow=block;startFill=1;endFill=1;strokeColor=#545B64;rounded=0;fontSize=15;exitX=1;exitY=0.75;exitDx=0;exitDy=0;exitPerimeter=0;entryX=0;entryY=0.75;entryDx=0;entryDy=0;entryPerimeter=0;" edge="1" parent="1" source="k0RCSUfhI0zsTWzoeVMQ-56" target="k0RCSUfhI0zsTWzoeVMQ-27">
          <mxGeometry width="100" relative="1" as="geometry">
            <mxPoint x="820" y="670" as="sourcePoint" />
            <mxPoint x="920" y="670" as="targetPoint" />
          </mxGeometry>
        </mxCell>
        <mxCell id="k0RCSUfhI0zsTWzoeVMQ-60" value="Consume&lt;br&gt;Messages" style="edgeLabel;html=1;align=center;verticalAlign=top;resizable=0;points=[];fontSize=15;labelBackgroundColor=none;" vertex="1" connectable="0" parent="k0RCSUfhI0zsTWzoeVMQ-58">
          <mxGeometry x="-0.2771" y="-2" relative="1" as="geometry">
            <mxPoint x="25.33" y="-6.5" as="offset" />
          </mxGeometry>
        </mxCell>
      </root>
    </mxGraphModel>
  </diagram>
</mxfile>
